<?xml version="1.0" encoding="UTF-8"?>
<!DOCTYPE svg PUBLIC "-//W3C//DTD SVG 1.1//EN" "http://www.w3.org/Graphics/SVG/1.1/DTD/svg11.dtd">
<!-- Creator: CorelDRAW -->
<svg xmlns="http://www.w3.org/2000/svg" xml:space="preserve" width="238.252mm" height="52.502mm" version="1.1" style="shape-rendering:geometricPrecision; text-rendering:geometricPrecision; image-rendering:optimizeQuality; fill-rule:evenodd; clip-rule:evenodd"
viewBox="0 0 23825.2 5250.2"
 xmlns:xlink="http://www.w3.org/1999/xlink"
 xmlns:xodm="http://www.corel.com/coreldraw/odm/2003">
 <defs>
  <style type="text/css">
   <![CDATA[
    .fil2 {fill:#FEFEFE}
    .fil1 {fill:url(#id0)}
    .fil0 {fill:url(#id1)}
   ]]>
  </style>
  <linearGradient id="id0" gradientUnits="userSpaceOnUse" x1="11488.55" y1="2094.89" x2="23226.53" y2="2402.71">
   <stop offset="0" style="stop-opacity:1; stop-color:#FFF6E1"/>
   <stop offset="1" style="stop-opacity:1; stop-color:#C4B290"/>
  </linearGradient>
  <linearGradient id="id1" gradientUnits="userSpaceOnUse" xlink:href="#id0" x1="-2488.48" y1="1319.53" x2="11814.09" y2="6800.42">
  </linearGradient>
 </defs>
 <g id="Camada_x0020_1">
  <metadata id="CorelCorpID_0Corel-Layer"/>
  <path class="fil0" d="M5001.42 2441.1c-762.52,392.46 -1327.57,517.72 -1769.9,462.25 -68.84,589.22 -44.12,1162.31 86.73,1602.48 114.85,386.38 329.03,659.92 715.52,571.23 474.98,-109 1176.68,-711.55 1321.88,-1406.95 76.06,532.12 -563.02,1350.61 -1195.15,1541.67 -610.12,184.43 -822.78,-206.2 -959.59,-723.41 -132.11,-499.44 -167.99,-1059.56 -121.41,-1612.31 -791.45,-185.45 -1167.25,-993.5 -1647.28,-1823.99 -320.05,-553.71 -499.16,-1112.95 -929.31,-151.77 -335.08,748.75 -394.88,1809.61 -269.09,2551.42 110.68,652.6 640.74,2175.05 1730.76,1392.5 464.12,-333.18 816.48,-982.82 967.47,-1309.03 -81.49,434.91 -385.18,1080.98 -834.8,1425.27 -1182.26,905.33 -1827.02,-774.46 -1977.8,-1473.14 -162.74,-754.14 -197.72,-1849.05 143.72,-2645.38 571.7,-1333.35 982.47,-622.01 1420,209.81 448.79,853.17 775.88,1476.49 1411.46,1670.43 113.53,-1011.75 501.19,-1977.28 1078.4,-2474.66 790.9,-681.49 1551.26,223.2 1098.96,1067.44 122.03,-1124.28 -625.85,-1299.89 -1029.56,-897.18 -518.38,517.06 -863.85,1437.33 -992.33,2342 421.58,76.96 972.06,-13.74 1751.32,-318.68z"/>
  <path class="fil1" d="M6388.87 3206.66l173.11 0 0 -105.99c125.42,98.92 259.67,144.85 383.31,146.62 332.1,7.06 618.25,-279.1 618.25,-664.18 0,-411.58 -279.08,-628.85 -642.97,-628.85l-531.7 0 0 1252.4zm16690.93 -132.48c58.28,75.95 171.34,158.97 374.48,158.97 250.83,0 370.94,-143.07 370.94,-263.19 0,-208.44 -187.24,-233.17 -347.99,-261.43 -134.24,-22.97 -270.26,-47.7 -270.26,-183.71 0,-109.52 153.68,-146.62 243.77,-146.62 144.84,0 229.63,81.26 279.1,125.42l54.75 -67.12c-56.52,-56.53 -153.68,-105.99 -316.18,-105.99 -203.14,0 -370.95,127.19 -370.95,273.8 0,199.6 197.84,240.23 386.84,272.02 114.82,19.44 234.94,38.87 234.94,158.99 0,127.18 -158.97,153.68 -280.86,153.68 -144.85,0 -236.71,-109.53 -295,-180.19l-63.58 65.37zm-542.54 -743.67c-287.92,0 -492.83,192.54 -492.83,450.44 0,259.67 204.91,452.2 492.83,452.2 289.7,0 494.6,-192.53 494.6,-452.2 0,-257.9 -204.9,-450.44 -494.6,-450.44zm0 44.17c206.68,0 323.26,173.1 323.26,406.27 0,234.93 -116.58,408.05 -323.26,408.05 -204.9,0 -323.25,-173.12 -323.25,-408.05 0,-233.17 118.35,-406.27 323.25,-406.27zm-1342.71 717.17c81.25,75.95 192.54,137.78 337.39,137.78 279.09,0 446.9,-196.08 446.9,-448.68 0,-247.3 -155.44,-443.37 -441.6,-443.37 -151.91,0 -282.64,67.12 -335.63,151.91l0 -132.48 -169.58 0 0 1266.64 162.52 0 0 -531.8zm614.72 -310.9c0,252.6 -118.35,385.08 -314.43,385.08 -151.91,0 -293.23,-102.45 -294.99,-227.86 0,-5.31 -1.76,-337.4 0,-339.17 56.52,-114.81 166.04,-213.73 296.76,-213.73 204.9,0 312.66,162.51 312.66,395.68zm-2287.75 -1.77c0,-229.64 183.7,-413.34 328.56,-402.75 88.31,7.07 162.5,93.63 162.5,296.77l0 533.46 164.28 0 0 -478.7c0,-173.11 158.98,-355.05 296.76,-363.89 95.39,-5.3 183.71,81.25 183.71,332.09l0 510.5 164.28 0 0 -538.77c0,-254.36 -176.65,-365.64 -351.53,-340.92 -121.88,17.67 -236.7,98.93 -296.75,240.24 -24.73,-173.11 -171.34,-250.83 -323.25,-234.93 -134.26,14.13 -272.04,100.68 -335.63,257.9l0 -14.13c0,-153.68 -15.9,-256.14 -233.17,-242.01l0 44.16c60.06,0 74.19,54.76 75.95,114.83l0 713.63 164.29 0 0 -427.48zm-1176.67 263.21c0,141.3 123.65,190.76 273.8,190.76 247.29,0 333.85,-158.97 370.95,-226.09 5.3,136.01 40.63,224.32 242,211.96l0 -44.15c-88.32,0 -75.96,-120.12 -75.96,-197.85l0 -340.92c0,-197.84 -217.27,-309.13 -423.94,-302.06 -150.15,5.31 -293.23,75.97 -337.39,226.11l79.49 33.56c33.56,-123.65 148.37,-211.97 257.9,-217.28 134.24,-7.06 257.9,68.89 257.9,247.31l0 79.48c-296.77,56.53 -644.75,83.02 -644.75,339.17zm339.16 134.24c-158.99,0 -185.48,-130.72 -185.48,-180.18 0,-178.4 252.6,-213.73 491.07,-257.9l0 139.55c-17.67,136.02 -151.92,298.53 -305.59,298.53zm-1718.99 -597.05c0,418.64 358.59,653.57 718.94,653.57 204.9,0 379.78,-45.92 517.56,-190.76l-118.35 -56.53c-102.45,125.42 -250.82,192.54 -399.21,192.54 -268.5,0 -535.22,-215.51 -535.22,-598.82 0,-372.72 263.19,-593.53 531.68,-598.82 155.45,-3.53 314.43,67.13 423.95,220.8l113.05 -67.12c-127.19,-151.92 -333.85,-219.04 -540.52,-211.97 -353.29,14.13 -711.88,247.3 -711.88,657.11zm-1420.44 462.81c0,141.3 123.66,190.76 273.8,190.76 247.3,0 333.86,-158.97 370.96,-226.09 5.29,136.01 40.62,224.32 242,211.96l0 -44.15c-88.32,0 -75.96,-120.12 -75.96,-197.85l0 -340.92c0,-197.84 -217.27,-309.13 -423.94,-302.06 -150.16,5.31 -293.23,75.97 -337.4,226.11l79.5 33.56c33.56,-123.65 148.37,-211.97 257.9,-217.28 134.24,-7.06 257.9,68.89 257.9,247.31l0 79.48c-296.77,56.53 -644.76,83.02 -644.76,339.17zm339.17 134.24c-158.99,0 -185.49,-130.72 -185.49,-180.18 0,-178.4 252.61,-213.73 491.08,-257.9l0 139.55c-17.67,136.02 -151.93,298.53 -305.59,298.53zm-417.1 1.77c-51.23,0 -67.13,-40.63 -74.2,-88.32l0 -1157.02 -162.5 1.77 0 634.15c-67.13,-141.32 -187.25,-236.7 -342.69,-236.7 -291.46,0 -441.61,197.83 -441.61,445.14 0,252.59 162.51,452.21 448.67,452.21 180.18,0 275.56,-77.73 335.63,-169.58 12.36,107.75 60.05,174.87 236.7,162.51l0 -44.16zm-851.42 -400.98c0,-183.71 116.58,-369.18 307.36,-369.18 144.84,0 264.96,121.87 303.82,264.96l0 252.59c-44.16,199.62 -180.17,252.61 -303.82,252.61 -187.24,0 -307.36,-217.28 -307.36,-400.98zm-554.89 -22.97c0,-162.51 100.68,-305.59 201.37,-317.95 58.29,-7.07 121.88,15.89 155.44,67.12l0 -157.21c-22.95,-3.54 -45.92,-5.3 -67.12,-5.3 -33.56,0 -65.35,3.53 -93.61,12.37 -84.79,26.49 -166.06,153.68 -201.37,250.83l0 -28.26c0,-153.68 -17.67,-256.14 -233.18,-242.01l0 44.16c51.23,0 67.12,40.63 74.19,88.32l0 740.14 164.28 0 0 -452.21zm-1176.69 287.94c0,141.3 123.66,190.76 273.8,190.76 247.3,0 333.86,-158.97 370.95,-226.09 5.3,136.01 40.63,224.32 242,211.96l0 -44.15c-88.32,0 -75.95,-120.12 -75.95,-197.85l0 -340.92c0,-197.84 -217.28,-309.13 -423.95,-302.06 -150.15,5.31 -293.22,75.97 -337.39,226.11l79.5 33.56c33.56,-123.65 148.37,-211.97 257.89,-217.28 134.25,-7.06 257.9,68.89 257.9,247.31l0 79.48c-296.76,56.53 -644.75,83.02 -644.75,339.17zm339.16 134.24c-158.99,0 -185.48,-130.72 -185.48,-180.18 0,-178.4 252.6,-213.73 491.07,-257.9l0 139.55c-17.67,136.02 -151.92,298.53 -305.59,298.53zm-653.8 -347.99c0,273.8 -203.15,362.12 -312.66,362.12 -180.18,0 -180.18,-150.14 -180.18,-286.16 0,-12.37 1.77,-24.73 1.77,-35.33l0 -512.26 -164.28 0 0 540.52c0,189.01 65.36,335.62 340.92,335.62 160.74,0 277.34,-143.07 314.43,-220.8 5.29,134.25 42.39,219.03 241.99,206.67l0 -44.15c-60.05,0 -72.41,-53 -75.95,-113.06l0 -704.8 -166.04 0 0 471.63zm-802.18 349.76c-51.24,0 -67.14,-40.63 -74.2,-88.32l0 -1157.02 -162.51 1.77 0 634.15c-67.13,-141.32 -187.25,-236.7 -342.69,-236.7 -291.46,0 -441.61,197.83 -441.61,445.14 0,252.59 162.52,452.21 448.68,452.21 180.17,0 275.56,-77.73 335.62,-169.58 12.37,107.75 60.06,174.87 236.71,162.51l0 -44.16zm-851.43 -400.98c0,-183.71 116.58,-369.18 307.36,-369.18 144.85,0 264.97,121.87 303.83,264.96l0 252.59c-44.17,199.62 -180.18,252.61 -303.83,252.61 -187.24,0 -307.36,-217.28 -307.36,-400.98zm-282.86 429.24l45.93 -139.55c-121.89,81.25 -310.89,72.43 -445.14,72.43l-280.86 0 0 -367.43c8.83,-37.08 33.56,-65.35 72.42,-75.95l49.46 -14.13c180.18,-51.22 397.45,-22.96 489.3,-185.48l-91.85 -58.29c-109.52,127.18 -192.55,171.35 -388.62,210.21l-130.71 26.49 0 -655.34 688.9 0 0 -65.36 -856.72 0 0 1252.4 847.89 0zm-1402.58 -97.15c0,52.99 44.16,97.15 97.15,97.15 54.76,0 98.92,-44.16 98.92,-97.15 0,-54.76 -44.16,-98.93 -98.92,-98.93 -52.99,0 -97.15,44.17 -97.15,98.93zm-945.28 -67.12c0,141.3 123.66,190.76 273.8,190.76 247.29,0 333.85,-158.97 370.95,-226.09 5.3,136.01 40.63,224.32 242,211.96l0 -44.15c-88.32,0 -75.95,-120.12 -75.95,-197.85l0 -340.92c0,-197.84 -217.28,-309.13 -423.95,-302.06 -150.15,5.31 -293.23,75.97 -337.39,226.11l79.49 33.56c33.56,-123.65 148.38,-211.97 257.9,-217.28 134.24,-7.06 257.9,68.89 257.9,247.31l0 79.48c-296.76,56.53 -644.75,83.02 -644.75,339.17zm339.16 134.24c-158.99,0 -185.48,-130.72 -185.48,-180.18 0,-178.4 252.6,-213.73 491.07,-257.9l0 139.55c-17.67,136.02 -151.92,298.53 -305.59,298.53zm-738.58 -422.18c0,-162.51 100.69,-305.59 201.38,-317.95 58.28,-7.07 121.88,15.89 155.44,67.12l0 -157.21c-22.96,-3.54 -45.93,-5.3 -67.12,-5.3 -33.57,0 -65.36,3.53 -93.62,12.37 -84.79,26.49 -166.05,153.68 -201.37,250.83l0 -28.26c0,-153.68 -17.67,-256.14 -233.18,-242.01l0 44.16c51.23,0 67.12,40.63 74.19,88.32l0 740.14 164.28 0 0 -452.21zm-1328.58 -734.83l358.59 0c280.86,0 471.64,247.3 471.64,563.49 0,317.96 -185.47,572.32 -438.08,595.29 -118.35,10.6 -252.6,-31.8 -386.85,-141.32l-5.3 -1017.46z"/>
  <path class="fil2" d="M21534.37 4174.18l-196.46 0 -40.66 92.42 -54.4 0 167.41 -369.68 52.28 0 167.94 369.68 -55.45 0 -40.66 -92.42zm-18.49 -42.25l-79.74 -181.14 -79.74 181.14 159.48 0zm-508.9 -235.01l52.81 0 0 369.68 -52.81 0 0 -369.68zm-279.7 182.73l50.7 0 0 144.17c-18.48,15.32 -39.61,26.94 -63.9,34.86 -24.29,7.92 -49.64,12.14 -76.05,12.14 -37.49,0 -70.76,-8.44 -100.87,-24.82 -30.1,-16.37 -53.33,-38.55 -70.23,-67.59 -17.43,-28.52 -25.88,-60.74 -25.88,-96.65 0,-35.91 8.45,-68.12 25.88,-97.17 16.9,-29.05 40.66,-51.23 70.76,-67.6 30.11,-16.37 63.9,-24.29 101.4,-24.29 29.57,0 56.51,4.75 80.8,14.26 23.77,10.03 44.36,24.29 61.26,42.77l-32.74 32.75c-29.58,-28.52 -65.49,-42.78 -107.21,-42.78 -27.99,0 -53.34,5.81 -75.52,17.96 -22.71,12.14 -40.13,29.04 -52.81,50.7 -12.67,21.65 -19.01,46.47 -19.01,73.4 0,26.94 6.34,50.7 19.01,72.35 12.68,21.66 30.1,39.08 52.81,51.23 22.18,12.15 47,18.48 74.99,18.48 33.27,0 61.79,-7.92 86.61,-23.76l0 -120.41zm-660.99 191.17c-37.49,0 -70.76,-8.44 -100.87,-24.82 -30.1,-16.37 -53.33,-38.55 -70.23,-67.59 -17.43,-29.05 -25.88,-61.26 -25.88,-96.65 0,-35.38 8.45,-67.6 25.88,-96.64 16.9,-29.05 40.13,-51.76 70.23,-68.13 30.11,-16.37 63.38,-24.29 100.87,-24.29 36.97,0 70.24,7.92 100.34,24.29 30.11,16.37 53.34,39.08 70.24,67.6 16.9,29.05 25.35,61.26 25.35,97.17 0,35.91 -8.45,68.13 -25.35,96.65 -16.9,29.04 -40.13,51.22 -70.24,67.59 -30.1,16.38 -63.37,24.82 -100.34,24.82zm0 -47c26.94,0 51.76,-6.33 73.41,-18.48 21.65,-12.15 38.55,-29.57 51.23,-51.23 12.14,-21.65 18.48,-45.41 18.48,-72.35 0,-26.93 -6.34,-51.22 -18.48,-72.88 -12.68,-21.65 -29.58,-38.55 -51.23,-50.7 -21.65,-12.14 -46.47,-18.48 -73.41,-18.48 -26.93,0 -51.75,6.34 -73.4,18.48 -22.18,12.15 -39.61,29.05 -51.76,50.7 -12.67,21.66 -19.01,45.95 -19.01,72.88 0,26.94 6.34,50.7 19.01,72.35 12.15,21.66 29.58,39.08 51.76,51.23 21.65,12.15 46.47,18.48 73.4,18.48zm-601.85 -326.9l52.81 0 0 323.73 200.16 0 0 45.95 -252.97 0 0 -369.68zm-404.87 373.9c-37.49,0 -70.76,-8.44 -100.87,-24.82 -30.1,-16.37 -53.33,-38.55 -70.23,-67.59 -17.43,-29.05 -25.88,-61.26 -25.88,-96.65 0,-35.38 8.45,-67.6 25.88,-96.64 16.9,-29.05 40.13,-51.76 70.23,-68.13 30.11,-16.37 63.38,-24.29 100.87,-24.29 36.97,0 70.24,7.92 100.34,24.29 30.11,16.37 53.34,39.08 70.24,67.6 16.9,29.05 25.35,61.26 25.35,97.17 0,35.91 -8.45,68.13 -25.35,96.65 -16.9,29.04 -40.13,51.22 -70.24,67.59 -30.1,16.38 -63.37,24.82 -100.34,24.82zm0 -47c26.94,0 51.76,-6.33 73.41,-18.48 21.65,-12.15 38.55,-29.57 51.23,-51.23 12.14,-21.65 18.48,-45.41 18.48,-72.35 0,-26.93 -6.34,-51.22 -18.48,-72.88 -12.68,-21.65 -29.58,-38.55 -51.23,-50.7 -21.65,-12.14 -46.47,-18.48 -73.41,-18.48 -26.93,0 -51.75,6.34 -73.4,18.48 -22.18,12.15 -39.61,29.05 -51.76,50.7 -12.67,21.66 -19.01,45.95 -19.01,72.88 0,26.94 6.34,50.7 19.01,72.35 12.15,21.66 29.58,39.08 51.76,51.23 21.65,12.15 46.47,18.48 73.4,18.48zm-446.06 -148.92c21.65,5.81 38.55,16.9 50.7,32.21 12.15,15.84 18.48,35.91 18.48,59.68 0,32.21 -12.14,56.51 -35.91,73.93 -24.29,17.43 -59.68,25.88 -105.62,25.88l-176.39 0 0 -369.68 165.83 0c42.25,0 74.99,8.45 98.23,25.35 22.7,16.9 34.32,40.14 34.32,70.24 0,19.54 -4.22,35.91 -13.2,50.17 -8.98,14.26 -21.12,24.82 -36.44,32.22zm-195.93 -135.2l0 118.3 108.26 0c26.94,0 48.06,-5.28 62.85,-15.32 14.26,-10.03 21.65,-24.29 21.65,-43.83 0,-19.54 -7.39,-34.33 -21.65,-44.36 -14.79,-10.04 -35.91,-14.79 -62.85,-14.79l-108.26 0zm121.47 284.12c30.1,0 52.28,-4.75 67.59,-14.78 15.32,-10.04 22.71,-25.35 22.71,-46.48 0,-41.19 -30.1,-61.79 -90.3,-61.79l-121.47 0 0 123.05 121.47 0zm-453.43 -49.64l-196.46 0 -40.66 92.42 -54.4 0 167.41 -369.68 52.28 0 167.94 369.68 -55.45 0 -40.66 -92.42zm-18.49 -42.25l-79.74 -181.14 -79.74 181.14 159.48 0zm-563.28 -189.06l-126.75 0 0 -45.95 305.78 0 0 45.95 -126.75 0 0 323.73 -52.28 0 0 -323.73zm-287.1 277.78l0 45.95 -268.28 0 0 -369.68 260.89 0 0 45.95 -208.08 0 0 113.54 185.37 0 0 44.89 -185.37 0 0 119.35 215.47 0zm-558.01 45.95l-0.52 -269.34 -133.62 224.45 -24.29 0 -133.61 -222.86 0 267.75 -50.7 0 0 -369.68 43.31 0 154.2 259.83 152.1 -259.83 43.3 0 0.53 369.68 -50.7 0zm-698.49 -45.95l0 45.95 -268.28 0 0 -369.68 260.89 0 0 45.95 -208.08 0 0 113.54 185.37 0 0 44.89 -185.37 0 0 119.35 215.47 0zm-689.51 -46.47l-196.46 0 -40.66 92.42 -54.4 0 167.41 -369.68 52.28 0 167.94 369.68 -55.45 0 -40.66 -92.42zm-18.49 -42.25l-79.74 -181.14 -79.74 181.14 159.48 0zm-508.9 -235.01l52.81 0 0 369.68 -52.81 0 0 -369.68zm-279.71 182.73l50.7 0 0 144.17c-18.48,15.32 -39.61,26.94 -63.9,34.86 -24.29,7.92 -49.64,12.14 -76.05,12.14 -37.49,0 -70.76,-8.44 -100.87,-24.82 -30.1,-16.37 -53.33,-38.55 -70.23,-67.59 -17.43,-28.52 -25.88,-60.74 -25.88,-96.65 0,-35.91 8.45,-68.12 25.88,-97.17 16.9,-29.05 40.66,-51.23 70.76,-67.6 30.11,-16.37 63.9,-24.29 101.4,-24.29 29.57,0 56.51,4.75 80.8,14.26 23.77,10.03 44.36,24.29 61.26,42.77l-32.74 32.75c-29.58,-28.52 -65.49,-42.78 -107.21,-42.78 -27.99,0 -53.34,5.81 -75.52,17.96 -22.71,12.14 -40.13,29.04 -52.81,50.7 -12.67,21.65 -19.01,46.47 -19.01,73.4 0,26.94 6.34,50.7 19.01,72.35 12.68,21.66 30.1,39.08 52.81,51.23 22.18,12.15 47,18.48 74.99,18.48 33.27,0 61.79,-7.92 86.61,-23.76l0 -120.41zm-660.99 191.17c-37.49,0 -70.76,-8.44 -100.87,-24.82 -30.1,-16.37 -53.33,-38.55 -70.23,-67.59 -17.43,-29.05 -25.88,-61.26 -25.88,-96.65 0,-35.38 8.45,-67.6 25.88,-96.64 16.9,-29.05 40.13,-51.76 70.23,-68.13 30.11,-16.37 63.38,-24.29 100.87,-24.29 36.97,0 70.24,7.92 100.34,24.29 30.11,16.37 53.34,39.08 70.24,67.6 16.9,29.05 25.35,61.26 25.35,97.17 0,35.91 -8.45,68.13 -25.35,96.65 -16.9,29.04 -40.13,51.22 -70.24,67.59 -30.1,16.38 -63.37,24.82 -100.34,24.82zm0 -47c26.94,0 51.76,-6.33 73.41,-18.48 21.65,-12.15 38.55,-29.57 51.23,-51.23 12.14,-21.65 18.48,-45.41 18.48,-72.35 0,-26.93 -6.34,-51.22 -18.48,-72.88 -12.68,-21.65 -29.58,-38.55 -51.23,-50.7 -21.65,-12.14 -46.47,-18.48 -73.41,-18.48 -26.93,0 -51.75,6.34 -73.4,18.48 -22.18,12.15 -39.61,29.05 -51.76,50.7 -12.67,21.66 -19.01,45.95 -19.01,72.88 0,26.94 6.34,50.7 19.01,72.35 12.15,21.66 29.58,39.08 51.76,51.23 21.65,12.15 46.47,18.48 73.4,18.48zm-601.84 -326.9l52.81 0 0 323.73 200.16 0 0 45.95 -252.97 0 0 -369.68zm-404.87 373.9c-37.49,0 -70.76,-8.44 -100.87,-24.82 -30.1,-16.37 -53.33,-38.55 -70.23,-67.59 -17.43,-29.05 -25.88,-61.26 -25.88,-96.65 0,-35.38 8.45,-67.6 25.88,-96.64 16.9,-29.05 40.13,-51.76 70.23,-68.13 30.11,-16.37 63.38,-24.29 100.87,-24.29 36.97,0 70.24,7.92 100.34,24.29 30.11,16.37 53.34,39.08 70.24,67.6 16.9,29.05 25.35,61.26 25.35,97.17 0,35.91 -8.45,68.13 -25.35,96.65 -16.9,29.04 -40.13,51.22 -70.24,67.59 -30.1,16.38 -63.37,24.82 -100.34,24.82zm0 -47c26.94,0 51.76,-6.33 73.41,-18.48 21.65,-12.15 38.55,-29.57 51.23,-51.23 12.14,-21.65 18.48,-45.41 18.48,-72.35 0,-26.93 -6.34,-51.22 -18.48,-72.88 -12.68,-21.65 -29.58,-38.55 -51.23,-50.7 -21.65,-12.14 -46.47,-18.48 -73.41,-18.48 -26.93,0 -51.75,6.34 -73.4,18.48 -22.18,12.15 -39.61,29.05 -51.76,50.7 -12.67,21.66 -19.01,45.95 -19.01,72.88 0,26.94 6.34,50.7 19.01,72.35 12.15,21.66 29.58,39.08 51.76,51.23 21.65,12.15 46.47,18.48 73.4,18.48zm-405.92 -326.9l0 369.68 -43.3 0 -221.81 -275.67 0 275.67 -52.81 0 0 -369.68 43.31 0 221.8 275.68 0 -275.68 52.81 0zm-609.75 0l52.81 0 0 369.68 -52.81 0 0 -369.68zm-264.91 369.68l-79.75 -113.54c-10.03,0.52 -17.43,1.05 -23.24,1.05l-91.36 0 0 112.49 -52.81 0 0 -369.68 144.17 0c48.06,0 85.56,11.62 113.02,34.33 27.46,22.71 41.19,54.4 41.19,94.53 0,28.52 -6.86,52.81 -21.12,72.88 -14.26,20.07 -34.33,34.86 -60.21,43.83l87.67 124.11 -57.56 0zm-104.57 -157.38c33.27,0 59.15,-7.39 76.58,-21.65 17.42,-14.26 26.4,-34.85 26.4,-61.79 0,-26.93 -8.98,-47.53 -26.4,-61.79 -17.43,-14.26 -43.31,-21.12 -76.58,-21.12l-89.78 0 0 166.35 89.78 0zm-487.25 161.6c-36.97,0 -70.24,-8.44 -99.81,-24.82 -30.11,-16.37 -53.34,-38.55 -70.24,-67.59 -16.9,-28.52 -25.35,-60.74 -25.35,-96.65 0,-35.91 8.45,-68.12 25.35,-97.17 16.9,-28.52 40.13,-51.23 70.24,-67.6 30.1,-16.37 63.37,-24.29 100.34,-24.29 29.04,0 55.45,4.75 79.21,14.26 23.77,10.03 44.36,24.29 61.26,43.3l-34.32 33.27c-27.99,-29.04 -62.32,-43.83 -104.04,-43.83 -27.46,0 -52.28,6.34 -74.46,18.48 -22.18,12.15 -39.61,29.05 -51.76,50.7 -12.67,21.66 -19.01,45.95 -19.01,72.88 0,26.94 6.34,50.7 19.01,72.35 12.15,21.66 29.58,39.08 51.76,51.23 22.18,12.15 47,18.48 74.46,18.48 41.19,0 76.05,-14.78 104.04,-44.36l34.32 33.27c-16.9,19.01 -37.49,33.27 -61.26,43.31 -24.29,10.03 -50.69,14.78 -79.74,14.78zm-570.17 0c-37.49,0 -70.76,-8.44 -100.87,-24.82 -30.1,-16.37 -53.33,-38.55 -70.23,-67.59 -17.43,-29.05 -25.88,-61.26 -25.88,-96.65 0,-35.38 8.45,-67.6 25.88,-96.64 16.9,-29.05 40.13,-51.76 70.23,-68.13 30.11,-16.37 63.38,-24.29 100.87,-24.29 36.97,0 70.24,7.92 100.34,24.29 30.11,16.37 53.34,39.08 70.24,67.6 16.9,29.05 25.35,61.26 25.35,97.17 0,35.91 -8.45,68.13 -25.35,96.65 -16.9,29.04 -40.13,51.22 -70.24,67.59 -30.1,16.38 -63.37,24.82 -100.34,24.82zm0 -47c26.94,0 51.76,-6.33 73.41,-18.48 21.65,-12.15 38.55,-29.57 51.23,-51.23 12.14,-21.65 18.48,-45.41 18.48,-72.35 0,-26.93 -6.34,-51.22 -18.48,-72.88 -12.68,-21.65 -29.58,-38.55 -51.23,-50.7 -21.65,-12.14 -46.47,-18.48 -73.41,-18.48 -26.93,0 -51.75,6.34 -73.4,18.48 -22.18,12.15 -39.61,29.05 -51.76,50.7 -12.67,21.66 -19.01,45.95 -19.01,72.88 0,26.94 6.34,50.7 19.01,72.35 12.15,21.66 29.58,39.08 51.76,51.23 21.65,12.15 46.47,18.48 73.4,18.48zm-731.24 -326.9l155.79 0c39.08,0 73.94,7.93 104.04,23.24 30.1,15.32 53.87,36.97 70.77,64.96 16.37,27.99 24.82,60.2 24.82,96.64 0,36.44 -8.45,68.13 -24.82,96.12 -16.9,27.99 -40.67,50.17 -70.77,65.48 -30.1,15.32 -64.96,23.24 -104.04,23.24l-155.79 0 0 -369.68zm152.62 323.73c30.11,0 56.51,-5.8 79.22,-17.42 22.71,-11.62 40.14,-27.99 52.28,-49.12 12.15,-20.59 18.49,-44.89 18.49,-72.35 0,-27.46 -6.34,-51.75 -18.49,-72.88 -12.14,-20.59 -29.57,-36.96 -52.28,-48.58 -22.71,-11.62 -49.11,-17.43 -79.22,-17.43l-99.81 0 0 277.78 99.81 0zm-391.65 -323.73l0 369.68 -43.3 0 -221.81 -275.67 0 275.67 -52.81 0 0 -369.68 43.31 0 221.8 275.68 0 -275.68 52.81 0zm-531.61 323.73l0 45.95 -268.28 0 0 -369.68 260.89 0 0 45.95 -208.08 0 0 113.54 185.37 0 0 44.89 -185.37 0 0 119.35 215.47 0z"/>
 </g>
</svg>
